HIERARCHY
ROOT Hips
{
	OFFSET 0.000000 97.167313 0.000000
	CHANNELS 6 Xposition Yposition Zposition Xrotation Yrotation Zrotation
	JOINT Spine
	{
		OFFSET 0.000000 13.784798 0.064400
		CHANNELS 3 Xrotation Yrotation Zrotation
		JOINT Spine1
		{
			OFFSET 0.000000 12.037903 0.404700
			CHANNELS 3 Xrotation Yrotation Zrotation
			JOINT Spine2
			{
				OFFSET 0.000000 17.795601 0.420200
				CHANNELS 3 Xrotation Yrotation Zrotation
				JOINT Neck
				{
					OFFSET 0.000000 39.131302 11.954600
					CHANNELS 3 Xrotation Yrotation Zrotation
					JOINT Head
					{
						OFFSET 0.000000 14.456192 15.627699
						CHANNELS 3 Xrotation Yrotation Zrotation
						JOINT HeadTop_End
						{
							OFFSET 0.000000 15.703506 7.603401
							CHANNELS 3 Xrotation Yrotation Zrotation
							End Site
							{
								OFFSET 0.000000 17.447403 0.000000
							}
						}
					}
				}
				JOINT LeftShoulder
				{
					OFFSET 17.399500 24.608795 1.168800
					CHANNELS 3 Xrotation Yrotation Zrotation
					JOINT LeftArm
					{
						OFFSET 18.980635 5.765305 1.818600
						CHANNELS 3 Xrotation Yrotation Zrotation
						JOINT LeftForeArm
						{
							OFFSET 49.290169 0.000000 0.000000
							CHANNELS 3 Xrotation Yrotation Zrotation
							JOINT LeftHand
							{
								OFFSET 31.562012 0.000000 0.000000
								CHANNELS 3 Xrotation Yrotation Zrotation
								JOINT LeftHandThumb1
								{
									OFFSET 6.133995 -4.388519 7.076070
									CHANNELS 3 Xrotation Yrotation Zrotation
									JOINT LeftHandThumb2
									{
										OFFSET 6.037666 -3.485840 3.485847
										CHANNELS 3 Xrotation Yrotation Zrotation
										JOINT LeftHandThumb3
										{
											OFFSET 6.496506 -3.750763 3.750761
											CHANNELS 3 Xrotation Yrotation Zrotation
											JOINT LeftHandThumb4
											{
												OFFSET 5.616882 -3.242905 3.242910
												CHANNELS 3 Xrotation Yrotation Zrotation
												End Site
												{
													OFFSET -1.254608 7.132141 0.375429
												}
											}
										}
									}
								}
								JOINT LeftHandPinky1
								{
									OFFSET 18.920792 -0.453171 -11.426712
									CHANNELS 3 Xrotation Yrotation Zrotation
									JOINT LeftHandPinky2
									{
										OFFSET 4.919586 0.000000 0.000000
										CHANNELS 3 Xrotation Yrotation Zrotation
										JOINT LeftHandPinky3
										{
											OFFSET 5.233047 0.000000 0.000000
											CHANNELS 3 Xrotation Yrotation Zrotation
											JOINT LeftHandPinky4
											{
												OFFSET 5.571716 0.000000 0.000000
												CHANNELS 3 Xrotation Yrotation Zrotation
												End Site
												{
													OFFSET -3.459808 4.342407 -0.466164
												}
											}
										}
									}
								}
								JOINT LeftHandRing1
								{
									OFFSET 22.726120 -0.094986 -6.500475
									CHANNELS 3 Xrotation Yrotation Zrotation
									JOINT LeftHandRing2
									{
										OFFSET 6.408615 0.000000 0.000000
										CHANNELS 3 Xrotation Yrotation Zrotation
										JOINT LeftHandRing3
										{
											OFFSET 6.150223 0.000000 0.000000
											CHANNELS 3 Xrotation Yrotation Zrotation
											JOINT LeftHandRing4
											{
												OFFSET 6.145386 0.000000 0.000000
												CHANNELS 3 Xrotation Yrotation Zrotation
												End Site
												{
													OFFSET -3.671402 4.923981 -0.202372
												}
											}
										}
									}
								}
								JOINT LeftHandMiddle1
								{
									OFFSET 23.373947 0.000000 0.000001
									CHANNELS 3 Xrotation Yrotation Zrotation
									JOINT LeftHandMiddle2
									{
										OFFSET 6.996567 0.000000 0.000000
										CHANNELS 3 Xrotation Yrotation Zrotation
										JOINT LeftHandMiddle3
										{
											OFFSET 7.015945 0.000000 0.000000
											CHANNELS 3 Xrotation Yrotation Zrotation
											JOINT LeftHandMiddle4
											{
												OFFSET 7.721573 0.000000 0.000000
												CHANNELS 3 Xrotation Yrotation Zrotation
												End Site
												{
													OFFSET -4.651108 6.158463 0.251582
												}
											}
										}
									}
								}
								JOINT LeftHandIndex1
								{
									OFFSET 21.310577 -0.490082 6.209344
									CHANNELS 3 Xrotation Yrotation Zrotation
									JOINT LeftHandIndex2
									{
										OFFSET 7.536453 0.000000 0.000000
										CHANNELS 3 Xrotation Yrotation Zrotation
										JOINT LeftHandIndex3
										{
											OFFSET 7.512344 0.000000 0.000000
											CHANNELS 3 Xrotation Yrotation Zrotation
											JOINT LeftHandIndex4
											{
												OFFSET 10.212402 0.000000 0.000001
												CHANNELS 3 Xrotation Yrotation Zrotation
												End Site
												{
													OFFSET -5.180801 8.690506 1.388433
												}
											}
										}
									}
								}
							}
						}
					}
				}
				JOINT RightShoulder
				{
					OFFSET -17.399500 24.608795 1.168800
					CHANNELS 3 Xrotation Yrotation Zrotation
					JOINT RightArm
					{
						OFFSET -18.980635 5.765305 1.818600
						CHANNELS 3 Xrotation Yrotation Zrotation
						JOINT RightForeArm
						{
							OFFSET -49.290169 0.000000 0.000000
							CHANNELS 3 Xrotation Yrotation Zrotation
							JOINT RightHand
							{
								OFFSET -31.562012 0.000000 0.000000
								CHANNELS 3 Xrotation Yrotation Zrotation
								JOINT RightHandThumb1
								{
									OFFSET -6.133995 -4.388519 7.076070
									CHANNELS 3 Xrotation Yrotation Zrotation
									JOINT RightHandThumb2
									{
										OFFSET -6.037666 -3.485840 3.485847
										CHANNELS 3 Xrotation Yrotation Zrotation
										JOINT RightHandThumb3
										{
											OFFSET -6.496506 -3.750763 3.750761
											CHANNELS 3 Xrotation Yrotation Zrotation
											JOINT RightHandThumb4
											{
												OFFSET -5.616882 -3.242905 3.242910
												CHANNELS 3 Xrotation Yrotation Zrotation
												End Site
												{
													OFFSET 1.254608 7.132141 0.375429
												}
											}
										}
									}
								}
								JOINT RightHandIndex1
								{
									OFFSET -21.310577 -0.490082 6.209344
									CHANNELS 3 Xrotation Yrotation Zrotation
									JOINT RightHandIndex2
									{
										OFFSET -7.536453 0.000000 0.000000
										CHANNELS 3 Xrotation Yrotation Zrotation
										JOINT RightHandIndex3
										{
											OFFSET -7.512344 0.000000 0.000000
											CHANNELS 3 Xrotation Yrotation Zrotation
											JOINT RightHandIndex4
											{
												OFFSET -10.212402 0.000000 0.000001
												CHANNELS 3 Xrotation Yrotation Zrotation
												End Site
												{
													OFFSET 5.180801 8.690506 1.388433
												}
											}
										}
									}
								}
								JOINT RightHandMiddle1
								{
									OFFSET -23.373947 0.000000 0.000001
									CHANNELS 3 Xrotation Yrotation Zrotation
									JOINT RightHandMiddle2
									{
										OFFSET -6.996567 0.000000 0.000000
										CHANNELS 3 Xrotation Yrotation Zrotation
										JOINT RightHandMiddle3
										{
											OFFSET -7.015945 0.000000 0.000000
											CHANNELS 3 Xrotation Yrotation Zrotation
											JOINT RightHandMiddle4
											{
												OFFSET -7.721573 0.000000 0.000000
												CHANNELS 3 Xrotation Yrotation Zrotation
												End Site
												{
													OFFSET 4.651108 6.158463 0.251582
												}
											}
										}
									}
								}
								JOINT RightHandRing1
								{
									OFFSET -22.726120 -0.094986 -6.500475
									CHANNELS 3 Xrotation Yrotation Zrotation
									JOINT RightHandRing2
									{
										OFFSET -6.408615 0.000000 0.000000
										CHANNELS 3 Xrotation Yrotation Zrotation
										JOINT RightHandRing3
										{
											OFFSET -6.150223 0.000000 0.000000
											CHANNELS 3 Xrotation Yrotation Zrotation
											JOINT RightHandRing4
											{
												OFFSET -6.145386 0.000000 0.000000
												CHANNELS 3 Xrotation Yrotation Zrotation
												End Site
												{
													OFFSET 3.671402 4.923981 -0.202372
												}
											}
										}
									}
								}
								JOINT RightHandPinky1
								{
									OFFSET -18.920792 -0.453171 -11.426712
									CHANNELS 3 Xrotation Yrotation Zrotation
									JOINT RightHandPinky2
									{
										OFFSET -4.919586 0.000000 0.000000
										CHANNELS 3 Xrotation Yrotation Zrotation
										JOINT RightHandPinky3
										{
											OFFSET -5.233047 0.000000 0.000000
											CHANNELS 3 Xrotation Yrotation Zrotation
											JOINT RightHandPinky4
											{
												OFFSET -5.571716 0.000000 0.000000
												CHANNELS 3 Xrotation Yrotation Zrotation
												End Site
												{
													OFFSET 3.459808 4.342407 -0.466164
												}
											}
										}
									}
								}
							}
						}
					}
				}
			}
		}
	}
	JOINT LeftUpLeg
	{
		OFFSET 19.899099 -7.885101 -3.429500
		CHANNELS 3 Xrotation Yrotation Zrotation
		JOINT LeftLeg
		{
			OFFSET 1.745560 -36.997807 10.304700
			CHANNELS 3 Xrotation Yrotation Zrotation
			JOINT LeftFoot
			{
				OFFSET -1.745558 -29.803308 -13.615400
				CHANNELS 3 Xrotation Yrotation Zrotation
				JOINT LeftToeBase
				{
					OFFSET 1.181900 -18.539904 15.226099
					CHANNELS 3 Xrotation Yrotation Zrotation
					JOINT LeftToe_End
					{
						OFFSET -0.863701 1.402801 16.534700
						CHANNELS 3 Xrotation Yrotation Zrotation
						End Site
						{
							OFFSET 0.000000 16.616566 0.000000
						}
					}
				}
			}
		}
	}
	JOINT RightUpLeg
	{
		OFFSET -19.899099 -7.885101 -3.429500
		CHANNELS 3 Xrotation Yrotation Zrotation
		JOINT RightLeg
		{
			OFFSET -1.745560 -36.997807 10.304700
			CHANNELS 3 Xrotation Yrotation Zrotation
			JOINT RightFoot
			{
				OFFSET 1.745558 -29.803308 -13.615400
				CHANNELS 3 Xrotation Yrotation Zrotation
				JOINT RightToeBase
				{
					OFFSET -1.181900 -18.539904 15.226099
					CHANNELS 3 Xrotation Yrotation Zrotation
					JOINT RightToe_End
					{
						OFFSET 0.863701 1.402801 16.534700
						CHANNELS 3 Xrotation Yrotation Zrotation
						End Site
						{
							OFFSET 0.000000 16.616566 0.000000
						}
					}
				}
			}
		}
	}
}
MOTION
Frames: 4
Frame Time: 0.033333
6.378101 85.652954 -16.320400 -166.467023 -119.359386 -163.955877 2.429193 -0.674131 3.387969 2.368670 -0.494597 1.935997 2.362649 -0.539705 1.946545 -3.978553 3.306412 1.717478 -3.947711 24.912750 -1.569323 -0.000000 0.000000 -0.000001 0.713006 -8.719878 -13.836733 6.630308 -5.214714 -60.431738 0.000030 -17.856503 0.000006 -62.808562 20.449255 7.544160 2.333980 -4.852064 -3.963514 13.533815 36.265893 -6.789669 18.237327 69.607646 3.188472 0.000001 0.000001 0.000000 2.878052 7.353371 -58.659686 3.100869 5.166400 -61.922249 2.817850 5.005792 -58.730556 0.000000 -0.000002 0.000003 3.051705 7.454254 -60.629731 5.249919 5.820201 -84.092818 2.817868 5.005785 -58.730550 0.000000 -0.000001 0.000003 2.878046 7.353394 -58.659666 6.420564 5.823388 -95.595252 1.278800 3.654826 -38.558754 0.000003 -0.000000 0.000008 2.878039 7.353374 -58.659666 6.385712 5.826673 -95.251844 2.817823 5.005782 -58.730550 0.000001 0.000002 -0.000003 0.116128 10.643878 11.915665 6.871346 7.760843 51.027206 157.047168 137.100967 -152.780745 -3.785016 2.819993 -15.887305 -3.900416 7.662577 -6.240650 7.141123 -24.468202 -3.168118 -4.478139 -13.938814 -16.547429 0.000003 -0.000002 0.000001 -1.463473 2.378011 19.095336 0.927573 -2.791121 36.760450 0.094579 -0.934782 11.554209 -0.000001 -0.000001 0.000001 0.329672 -3.877069 20.004132 0.927754 -2.791370 36.764241 0.094548 -0.934638 11.552224 -0.000001 0.000003 -0.000008 2.122914 -7.770201 24.772271 0.930034 -2.794402 36.810956 0.094429 -0.934037 11.544796 -0.000004 -0.000000 -0.000003 -8.903218 -18.234780 29.535999 0.942755 -2.811312 37.071268 0.094576 -0.934760 11.553759 0.000000 0.000001 0.000002 -1.760314 8.866369 13.870333 34.072064 -0.113825 0.239030 -6.403891 7.898733 -14.147366 -15.501490 3.165045 -11.260450 -0.000001 -0.000002 -0.000000 -38.802383 -1.644659 -14.416251 38.547604 -7.409633 -2.194756 -2.003383 -5.719224 9.873116 -2.021605 -0.007431 0.537613 -0.000000 0.000000 -0.000000 
7.804651 85.700813 -16.881155 -167.779157 -120.283402 -165.712820 2.272313 -0.948338 3.506393 2.217825 -0.660981 1.968256 2.211325 -0.709185 1.975265 -3.738300 3.189644 1.707797 -3.938005 23.987247 -1.300307 -0.000001 0.000002 -0.000000 0.686040 -8.754145 -13.925753 7.439250 -4.039508 -60.216806 -0.000013 -16.227338 -0.000019 -65.049226 21.040077 7.650153 2.333980 -4.852063 -3.963511 13.533817 36.265897 -6.789665 18.237341 69.607646 3.188481 -0.000001 0.000001 0.000000 2.878053 7.353372 -58.659686 3.100869 5.166405 -61.922249 2.817851 5.005790 -58.730556 -0.000002 0.000001 0.000001 3.051706 7.454254 -60.629725 5.249919 5.820198 -84.092818 2.817870 5.005786 -58.730550 -0.000002 -0.000001 0.000003 2.878045 7.353393 -58.659659 6.420562 5.823384 -95.595259 1.278798 3.654830 -38.558764 -0.000000 -0.000001 0.000008 2.878043 7.353377 -58.659666 6.385712 5.826669 -95.251844 2.817826 5.005781 -58.730556 -0.000003 -0.000000 -0.000001 0.141389 10.286841 11.807666 7.902605 8.108198 50.796387 158.428902 139.024075 -154.651739 -3.726911 2.326426 -17.073636 -3.809663 7.457037 -6.229804 7.089737 -24.515282 -3.211694 -4.482170 -13.922038 -16.558458 0.000002 -0.000001 -0.000000 -1.429110 2.272158 18.787853 0.924453 -2.786926 36.696107 0.101049 -0.965942 11.944840 0.000000 0.000001 -0.000003 0.327034 -3.869807 19.908700 0.924608 -2.787165 36.699511 0.101024 -0.965787 11.943029 0.000002 0.000001 -0.000001 2.127253 -7.770891 24.825782 0.926856 -2.790146 36.745492 0.100910 -0.965259 11.936334 -0.000002 0.000002 0.000000 -8.874351 -18.246652 29.694056 0.939451 -2.806925 37.003550 0.101059 -0.965911 11.944530 0.000002 -0.000000 -0.000001 1.246524 9.968869 13.391442 33.435842 -0.560963 -0.118183 -4.458314 8.198080 -15.187846 -19.176700 3.699805 -10.516504 -0.000001 -0.000003 0.000000 -38.814609 -1.999385 -14.294412 37.529714 -7.655619 -2.109753 -0.353979 -6.159781 9.805059 -2.061252 -0.006428 0.500859 0.000000 -0.000000 0.000000 
9.166049 85.883148 -17.334120 -168.959182 -121.406052 -167.328679 2.103954 -1.189411 3.481663 2.058316 -0.828400 1.979367 2.050427 -0.879316 1.983108 -3.504165 3.042748 1.695602 -4.011038 22.915445 -1.030181 -0.000000 0.000004 -0.000001 0.660066 -8.842785 -13.972569 8.188859 -3.217908 -60.047178 -0.000008 -14.589120 -0.000010 -66.562823 21.679473 7.534324 2.333979 -4.852065 -3.963507 13.533817 36.265893 -6.789669 18.237329 69.607646 3.188477 0.000002 -0.000001 0.000000 2.878050 7.353374 -58.659686 3.100870 5.166408 -61.922249 2.817853 5.005797 -58.730556 -0.000002 -0.000001 0.000001 3.051706 7.454256 -60.629725 5.249919 5.820198 -84.092818 2.817873 5.005783 -58.730550 -0.000001 -0.000001 0.000003 2.878044 7.353393 -58.659659 6.420562 5.823384 -95.595259 1.278795 3.654829 -38.558757 0.000001 0.000000 0.000007 2.878041 7.353377 -58.659673 6.385709 5.826667 -95.251844 2.817823 5.005779 -58.730556 -0.000001 0.000001 0.000001 0.162206 9.930018 11.746715 8.725246 8.600728 50.787538 160.008601 140.869018 -156.730315 -3.711068 1.795162 -18.185304 -3.702849 7.218906 -6.216740 7.030636 -24.570327 -3.262078 -4.487195 -13.901131 -16.572177 -0.000001 0.000001 -0.000001 -1.387805 2.145161 18.492655 0.933705 -2.799301 36.886037 0.109075 -1.003122 12.412126 0.000002 0.000000 -0.000001 0.325635 -3.865994 19.858181 0.933856 -2.799493 36.888991 0.109053 -1.003001 12.410562 0.000000 0.000001 -0.000008 2.137752 -7.773965 24.946824 0.936067 -2.802443 36.934487 0.108949 -1.002536 12.404593 0.000001 -0.000001 -0.000003 -8.832988 -18.259573 29.936374 0.948590 -2.819024 37.190069 0.109086 -1.003124 12.412009 0.000002 -0.000001 -0.000001 4.372882 10.419974 13.056781 31.278827 0.020578 -0.310762 -3.144926 8.723113 -17.656531 -21.646430 3.569779 -8.922401 -0.000000 0.000001 0.000000 -38.514593 -2.349679 -14.301433 36.184187 -7.838644 -2.000178 1.319975 -6.833723 9.853399 -2.093700 -0.005558 0.467654 -0.000000 0.000000 -0.000000 
10.351974 86.297874 -17.650789 -169.966116 -122.692437 -168.694485 1.930497 -1.337856 3.230855 1.900651 -0.964400 1.968361 1.890287 -1.017646 1.969960 -3.290963 2.853782 1.695084 -4.242797 21.655965 -0.703656 -0.000001 0.000001 0.000000 0.632917 -9.038181 -13.995827 8.835573 -2.864186 -59.867885 -0.000001 -12.854414 -0.000008 -67.430025 22.306906 7.159253 2.333983 -4.852061 -3.963510 13.533815 36.265893 -6.789664 18.237331 69.607639 3.188469 -0.000000 0.000004 0.000002 2.878050 7.353368 -58.659693 3.100870 5.166408 -61.922249 2.817851 5.005799 -58.730556 -0.000002 0.000004 -0.000002 3.051705 7.454253 -60.629725 5.249921 5.820196 -84.092818 2.817870 5.005783 -58.730550 -0.000001 -0.000002 0.000003 2.878044 7.353393 -58.659666 6.420565 5.823387 -95.595252 1.278796 3.654830 -38.558757 -0.000001 0.000000 0.000008 2.878043 7.353377 -58.659666 6.385706 5.826670 -95.251844 2.817822 5.005779 -58.730556 -0.000001 0.000003 0.000002 0.173384 9.626151 11.803598 9.171274 9.137145 50.979046 161.492883 142.897147 -158.758854 -3.697655 1.540283 -19.119272 -3.578401 6.945078 -6.201003 6.963103 -24.634148 -3.319884 -4.493306 -13.875678 -16.588895 0.000001 -0.000003 -0.000003 -1.339219 1.995210 18.207324 0.955924 -2.828618 37.338561 0.118936 -1.046824 12.962268 0.000002 -0.000001 0.000001 0.325520 -3.865659 19.853140 0.956040 -2.828782 37.341057 0.118898 -1.046737 12.960957 -0.000004 0.000001 -0.000006 2.154685 -7.779502 25.137972 0.958280 -2.831712 37.386406 0.118814 -1.046311 12.955706 -0.000001 -0.000002 -0.000003 -8.778840 -18.273700 30.266959 0.970793 -2.847980 37.639110 0.118922 -1.046869 12.962398 -0.000000 -0.000001 0.000004 7.219787 10.215212 12.523995 27.887615 1.404376 -0.160830 -3.441468 9.483100 -19.804268 -21.960513 2.905798 -7.169094 0.000000 -0.000000 -0.000000 -37.758331 -2.690505 -14.430994 34.384019 -7.942888 -1.896305 2.974577 -7.758201 10.018060 -2.111589 -0.004891 0.443522 -0.000000 0.000000 -0.000000 
